<svg version="1" xmlns="http://www.w3.org/2000/svg" width="2666.667" height="2666.667" viewBox="0 0 2000.000000 2000.000000"><path d="M1005.7 72.5c-.1.1-3.8.5-8.2.8-10.7.8-17.2 2.1-28.3 5.8-21.7 7.1-37.7 16.5-60.2 35.3-4.6 3.9-9.5 8-10.9 9.1-1.3 1.1-3.3 2.9-4.5 4-1.2 1.1-4.8 4.2-8.1 6.9s-8.5 7-11.5 9.6c-3 2.6-11.1 9.4-18 15.1-6.9 5.7-14.1 11.8-16 13.5-1.9 1.8-4.8 4.3-6.5 5.5-1.6 1.3-3.2 2.6-3.5 2.9-.3.3-4.5 4.2-9.5 8.5-4.9 4.3-9.7 8.6-10.6 9.4-.9.9-6.5 6.1-12.4 11.6-16.2 15-17.1 15.8-28.6 27.1L758.2 248l-8.3-8.5c-20.6-21.1-37.6-31.1-83.9-49.1-9.1-3.5-38.9-14.1-42-15-18.1-4.8-24.6-6.5-26.8-6.8-1.5-.3-5.8-1-9.7-1.7-13.4-2.3-38.5-1.6-54 1.7-10.5 2.1-10.6 2.1-21.7 6-36.7 12.6-77 39.6-121.2 81.4-22.2 21-44.7 44.5-59.3 62-8 9.6-26.4 34-29.9 39.5-1 1.6-2.1 3.2-2.4 3.5-2 1.7-28.1 42.5-43.8 68.5-32.2 53.3-43.3 78-46.7 104.5-.3 1.9-.7 4.6-1 5.9-.2 1.3-.7 6.3-1 11-.3 4.7-.8 9.9-1 11.6-2.2 16.3-2.2 90.8 0 114.5.2 1.9.6 10.5 1 19s.8 17.1 1 19c.2 1.9.6 8.1 1 13.8.3 5.7.8 12 1 14 .2 2 .6 7.7 1 12.7.4 4.9.8 10.3 1 12 .6 6.1 1.6 15.1 2 18.5.3 1.9.8 6.6 1.1 10.5.3 3.8.8 7.9 1 9 .2 1 .6 4.9.9 8.5.9 10 1.5 17 2 22.5.3 2.7.7 7.9 1 11.5 1.1 14.2 2.9 30.7 4 36 1.8 8.8 2.3 7.5-10.6 26.5-6.7 9.9-20.3 29.8-30.3 44.3-51.1 74.1-55.3 80.8-62.6 99.1-9.4 24-6.1 48.5 10.5 78 4.3 7.7 19.7 21.5 32.1 28.7 4.1 2.4 4.9 4.2 7 15 .5 2.6 5.6 23.1 6.5 25.9.5 1.6 4.7 15.6 9.4 31 4.6 15.4 9.5 31.1 10.9 35 7.3 21.3 17.2 36.2 32.9 50 5.4 4.8 20.9 12.4 29.4 14.5l5.2 1.3.6 5.1c.4 2.8 1.1 6.7 1.7 8.7.9 3 .6 4.4-1.5 9-15.2 33.4-14.6 70.8 1.7 100.9 10.7 20 28.9 39 45.7 48 3.2 1.7 5.8 3.4 5.7 3.8-.2.7 1 11.8 1.7 17.2 3.3 22.5 13.1 41.7 29.9 58.6 9.2 9.2 18.8 15.8 29.3 20 5 2 7.3 3.4 7.3 4.6 0 5.5 9.6 37.4 16.5 54.8 4.1 10.4 18.5 40 24.2 49.5 5.2 8.8 21.1 32.7 28.4 42.7 3.5 4.8 8 11.1 9.9 13.9 1.9 2.8 4 5.6 4.5 6.2.6.7 8.5 11.5 17.4 24.2 9 12.6 18.3 25.2 20.6 28 18.3 21.7 36.5 33.2 62 39.2 2.6.6 30.1 2.4 43.5 2.8 12.5.5 23.6-1.6 35.7-6.6 7.6-3.2 17.9-9 22.4-12.6 7.5-6.1 16.2-13.8 21.1-18.7l5.7-5.6 1.6 5.7c4.1 14.1 13.2 27.1 25.3 36.4 13 9.8 28.1 15.2 44.2 15.8.9.1 3.3 3.1 5.4 6.9 2.3 4 7.2 9.9 12.1 14.8 6.9 6.7 10.1 9 18.6 13.2 12.8 6.3 20.9 8.1 34.9 7.8 15.6-.4 27.7-4.2 40-12.6 7.3-5 28.5-23.9 55.4-49.5 1.2-1.1 5.9-5.4 10.6-9.5 4.7-4.1 8.7-7.8 9-8.1.3-.3 4.1-3.6 8.5-7.3 4.4-3.7 10-8.5 12.5-10.6 2.5-2 8.3-6.8 13-10.6 4.7-3.8 8.7-7.2 8.8-7.7.5-1 4-.9 4.7.3.3.5 5 4.6 10.4 9 5.4 4.3 10.5 8.5 11.2 9.2.8.7 3.7 3.1 6.4 5.2 2.8 2.1 5.7 4.6 6.5 5.5.8.9 3.1 2.9 5 4.5 1.9 1.5 7.8 6.7 12.9 11.5 5.2 4.7 10.6 9.6 12 10.9 1.5 1.3 7.8 7.2 14.1 13.1 10.5 9.8 17.5 16.2 27.2 24.8 17.8 15.8 35.7 22.6 56.7 21.8 19-.8 36-8.3 49.3-21.7 5.5-5.5 11.8-13.8 11.8-15.5 0-.4.8-1.8 1.8-2.9 1.3-1.7 3.2-2.3 7.9-2.7 26.2-2.5 48.8-17.9 60.6-41.5 2-4 3.9-8.9 4.3-10.8.9-4.6 1.8-4.9 5.2-1.7 9.5 9.2 16.2 15.2 19.7 17.8 2.2 1.6 4.2 3.2 4.5 3.5 3 3.2 18.1 11 27 14 12.5 4.1 20.5 5.3 31.8 4.6 29.6-1.8 40-2.5 42.3-3 7.2-1.6 17.2-5.2 24.4-8.9 19.2-9.7 34.3-24.5 52.6-51.2 1.9-2.8 7.9-11.2 13.4-18.8 5.5-7.6 10.9-15.1 12-16.7 1.1-1.6 5.2-7.3 9.1-12.7 20.2-28.1 30.5-44.5 41.9-66.9 4.5-8.9 8.5-17 8.8-18 .3-1 2-5.3 3.7-9.4 4.8-11.5 12.6-35.3 15.1-46.7l2.3-10.2 4.5-1.7c19.2-7.3 37-23.1 48.4-42.9 8.1-14 12.3-27.6 14.2-46.1.4-3.8.8-7.5.9-8.2.1-.7 3.3-3 7-5.2 30.7-17.9 53.5-53.1 56.3-86.8 1-11 .5-23.8-1.1-31.8-2.3-11.1-6.7-24.7-9.8-30.2-1.7-3.2-1.8-3.8-.3-10.7.8-4.1 1.5-8.3 1.5-9.4 0-1.4.9-2.1 3.3-2.6 1.7-.4 5.6-1.5 8.5-2.6 24-8.7 42.1-27.5 53.1-54.9 2.9-7.3 17.3-53.3 22.4-71.5 3-10.6 7.7-29.8 8.4-33.9.9-5.3 1.8-6.4 9.3-11.4 10.1-6.5 20.9-15.9 25.2-21.9 7.1-9.6 14.5-26.2 17.3-38.7 3-13 1.6-31.5-3.2-43.1-2.8-6.7-9.2-19.8-11.5-23.5-6.5-10.5-21.5-32.8-39.3-58.5-11.1-16-26.5-38.5-34.3-50l-14.1-21 2.4-9.8c2.7-11.2 2.7-10.9 6-31.7 2.5-15.5 2.8-18.3 4-29.5.4-3.3.8-7.1 1-8.5 2.5-15 2.5-87 0-91-.2-.3-.6-3-1-6-1.2-9.8-10.3-38.6-13.5-42.5-.5-.6-2.4-4.1-4.4-7.8-9.3-18-28.7-42.9-49.4-63.5-5.2-5.2-8-8.7-7.5-9.5 3.6-6 24-34.3 29.4-40.7 15.3-18.4 22.9-33.5 27.5-54.5 1.4-6.4 1.3-29-.2-36.5-3-16-8.6-30.7-17.5-46.1-3.3-5.8-19-27.5-20.9-28.9-.3-.3-4.2-4.6-8.5-9.5-7.8-9-58.9-60.3-76.1-76.5-20.8-19.6-23.8-22.4-39.4-36.1-6.8-5.9-36.6-30.7-48-39.9-21.6-17.5-34.5-25.7-54-34.3-6.9-3.1-21.4-7.1-32.5-9.2-27.3-4.9-67.1-11-79-12-7.4-.7-12.8-1.2-18.5-2-1.9-.2-7.5-.7-12.5-1-4.9-.4-11-.8-13.5-1-21-1.7-60.3-2.5-67.1-1.4-6.9 1.1-13.2 1.7-24.3 2.4-18 1.2-25.3 2.6-38.6 7.2-8.7 3-13.6 5.4-24.3 11.7-4.3 2.5-8.2 4.6-8.8 4.6-.6 0-18-16.8-38.6-37.3-45-44.6-40.3-40-48.8-47.3-29.8-25.5-59.6-38.5-93.3-40.7-2.8-.2-5.3-.3-5.5-.2z"/></svg>